<svg viewBox="0 0 1768.61 748.43" xmlns="http://www.w3.org/2000/svg"><g fill="#1d1d1b"><path d="m87.45 661.7v33.18h-6.65v-14.12h-14.21v14.12h-6.66v-33.18h6.66v13.64h14.21v-13.64z"/><path d="m100.86 693.02c-2.6-1.46-4.66-3.48-6.18-6.06s-2.28-5.51-2.28-8.77.76-6.14 2.28-8.72 3.58-4.6 6.18-6.06 5.45-2.19 8.56-2.19 6 .73 8.58 2.19 4.63 3.48 6.13 6.06 2.26 5.49 2.26 8.72-.75 6.19-2.26 8.77c-1.5 2.58-3.56 4.6-6.15 6.06-2.6 1.46-5.45 2.19-8.56 2.19s-5.96-.73-8.56-2.19m13.83-5.11c1.52-.9 2.71-2.19 3.57-3.87s1.28-3.63 1.28-5.85-.43-4.16-1.28-5.82c-.86-1.66-2.04-2.94-3.57-3.83-1.52-.89-3.28-1.33-5.28-1.33s-3.76.45-5.3 1.33c-1.54.89-2.73 2.16-3.59 3.83-.86 1.66-1.28 3.61-1.28 5.82s.43 4.17 1.28 5.85 2.05 2.97 3.59 3.87 3.3 1.36 5.3 1.36 3.75-.45 5.28-1.36"/><path d="m136.53 694.02c-1.85-.79-3.32-1.93-4.4-3.42s-1.63-3.25-1.66-5.28h7.13c.09 1.36.58 2.44 1.45 3.23s2.07 1.19 3.59 1.19 2.77-.37 3.66-1.12c.89-.74 1.33-1.72 1.33-2.92 0-.98-.3-1.79-.9-2.42-.6-.64-1.36-1.13-2.26-1.5-.9-.36-2.15-.77-3.73-1.21-2.15-.63-3.9-1.26-5.25-1.88s-2.5-1.55-3.47-2.81c-.97-1.25-1.45-2.92-1.45-5.01 0-1.97.49-3.68 1.47-5.13.98-1.46 2.36-2.57 4.14-3.35 1.77-.78 3.8-1.17 6.08-1.17 3.42 0 6.2.83 8.34 2.5 2.14 1.66 3.32 3.99 3.54 6.96h-7.32c-.06-1.14-.55-2.08-1.45-2.83-.9-.74-2.1-1.12-3.59-1.12-1.3 0-2.34.33-3.11 1-.78.67-1.16 1.63-1.16 2.9 0 .89.29 1.62.88 2.21s1.31 1.06 2.19 1.43c.87.36 2.1.78 3.68 1.26 2.15.63 3.91 1.27 5.28 1.9 1.36.64 2.54 1.58 3.52 2.85s1.47 2.93 1.47 4.99c0 1.77-.46 3.42-1.38 4.94s-2.27 2.73-4.04 3.64c-1.78.9-3.88 1.35-6.32 1.35-2.31 0-4.4-.4-6.25-1.19"/><path d="m182.85 661.7v5.37h-8.84v27.81h-6.65v-27.81h-8.84v-5.37z"/><path d="m199.61 669.47c1.47-2.58 3.48-4.59 6.04-6.04 2.55-1.44 5.41-2.16 8.58-2.16 3.71 0 6.96.95 9.74 2.85 2.79 1.9 4.74 4.53 5.85 7.89h-7.65c-.76-1.58-1.83-2.77-3.21-3.57-1.38-.79-2.97-1.19-4.78-1.19-1.93 0-3.65.45-5.16 1.36-1.51.9-2.68 2.18-3.52 3.82-.84 1.65-1.26 3.58-1.26 5.8s.42 4.11 1.26 5.77 2.01 2.95 3.52 3.85 3.22 1.35 5.16 1.35c1.81 0 3.4-.4 4.78-1.21s2.45-2 3.21-3.59h7.65c-1.11 3.39-3.05 6.03-5.82 7.92-2.77 1.88-6.03 2.83-9.77 2.83-3.17 0-6.03-.72-8.58-2.16s-4.56-3.45-6.04-6.01c-1.47-2.57-2.21-5.48-2.21-8.75s.74-6.19 2.21-8.77"/><path d="m235.52 661.7h6.65v33.18h-6.65z"/><path d="m271.31 661.7v5.37h-8.84v27.81h-6.65v-27.81h-8.84v-5.37z"/><path d="m302.54 661.7-11.21 21.62v11.56h-6.66v-11.56l-11.27-21.62h7.52l7.13 15.16 7.08-15.16z"/><path d="m454.71 0h4.64v748.43h-4.64z"/><path d="m1400.61 629.42c3.74.1 7.6-.15 11.51-.72-21.44-5.18-28.39-24.93-15.04-48.02s42.51-41.91 69.18-45.82c-3.14-.75-6.58-1.19-10.31-1.29-29.29-.77-65.42 20.07-80.71 46.54s-3.93 48.56 25.38 49.31"/><path d="m1493.03 677.81c2.02-3.16 3.76-6.6 5.28-10.23-15.49 15.71-35.99 11.51-48.91-11.83s-14-58.05-3.61-82.93c-2.27 2.29-4.43 5.01-6.43 8.17-15.74 24.7-16.49 66.42-1.67 93.17 14.79 26.75 39.57 28.37 55.34 3.66"/><path d="m1581.66 620.51c-1.79-3.29-3.94-6.5-6.38-9.59 6.23 21.14-7.4 37.06-34.07 37.06s-57.55-15.89-74.29-37.06c.92 3.09 2.24 6.3 4.03 9.59 13.97 25.75 50.11 46.62 80.66 46.62 30.56.02 44.01-20.85 30.03-46.62"/><path d="m1264.99 419.08v29.6h8.22v-39.55c0-2.42-2.08-4.5-4.5-4.5-1.21 0-2.6.69-3.38 1.65l-24.84 30.46v-27.52c0-2.51-2.08-4.59-4.59-4.59-1.21 0-2.34.52-3.2 1.39l-45.7 42.67h12.12l33.15-30.98v26.31c0 3.03 2.42 5.45 5.45 5.45 1.9 0 3.38-.87 4.5-2.25l22.76-28.13z"/><path d="m1281.43 405.4h8.22v43.27h-8.22z"/><path d="m1324.97 448.67v-7.53h-18.87v-35.74h-8.22v43.27z"/><path d="m1353.79 406.79c-.61-1.3-1.73-2.16-3.29-2.16s-2.68.86-3.29 2.16l-19.3 41.89h8.74l4.59-10.13h18.35l4.59 10.13h9.09l-19.47-41.89zm-9.17 24.23 5.88-12.9 5.71 12.9h-11.6z"/><path d="m1676.09 419.77v28.91h-8.22v-39.55c0-2.51 1.99-4.5 4.5-4.5 1.3 0 2.51.52 3.55 1.82l22.94 27.95v-28.99h8.05v39.55c0 2.51-1.99 4.5-4.5 4.5-1.3 0-2.51-.52-3.55-1.82l-22.76-27.87z"/><path d="m1444.23 404.62c-12.38 0-22.33 10.04-22.33 22.42s9.95 22.42 22.33 22.42 22.33-10.04 22.33-22.42-9.95-22.42-22.33-22.42m0 37.47c-7.88 0-13.93-6.92-13.93-15.06s6.06-15.06 13.93-15.06 13.93 6.92 13.93 15.06-6.06 15.06-13.93 15.06"/><path d="m1491.4 427.04c0 8.14 5.97 15.06 14.54 15.06 5.11 0 8.57-2.68 10.13-6.32h9.09c-1.73 7.1-9.17 13.67-19.3 13.67-13.5 0-22.85-10.04-22.85-22.42s9.43-22.42 22.85-22.42c10.21 0 17.74 6.15 19.39 14.19h-9.26c-1.3-3.64-4.67-6.84-10.04-6.84-8.57 0-14.54 6.92-14.54 15.06"/><path d="m1550.94 404.62c-12.38 0-22.33 10.04-22.33 22.42s9.95 22.42 22.33 22.42 22.33-10.04 22.33-22.42-9.95-22.42-22.33-22.42m0 37.47c-7.88 0-13.93-6.92-13.93-15.06s6.06-15.06 13.93-15.06 13.93 6.92 13.93 15.06-6.06 15.06-13.93 15.06"/><path d="m1598.89 429.63c5.89-1.21 9.61-5.88 9.61-11.94 0-7.1-5.11-12.29-12.98-12.29h-16.53v43.27h8.22v-18.7h1.99l14.11 18.7h9.87l-14.28-19.04zm-11.68-6.84v-10.21h6.49c3.98 0 6.41 1.82 6.41 5.11s-2.42 5.11-6.41 5.11h-6.49z"/><path d="m1624.86 448.67h8.22v-35.74h12.03v-7.53h-32.37v7.53h12.12z"/><path d="m1651.34 405.4h8.22v43.27h-8.22z"/><path d="m1384.42 419.77v28.91h-8.22v-39.55c0-2.51 1.99-4.5 4.5-4.5 1.3 0 2.51.52 3.55 1.82l22.94 27.95v-28.99h8.05v39.55c0 2.51-1.99 4.5-4.5 4.5-1.3 0-2.51-.52-3.55-1.82l-22.76-27.87z"/><path d="m1722.91 406.01c-.86-.87-1.99-1.38-3.2-1.38-2.51 0-4.59 2.08-4.59 4.59v39.47h8.22v-10.13h22.59l10.82 10.13h11.86l-45.7-42.67zm.43 25.01v-13.59l14.54 13.59z"/><path d="m1480.83 501.74c0-1.21.78-2.42 1.9-3.63l15.23-16.53c2.34-2.6 4.15-4.67 4.15-7.53 0-3.12-2.42-4.93-6.14-4.93s-6.32 2.94-6.32 6.4h-8.14c0-6.66 5.28-13.76 14.45-13.76s14.37 5.28 14.37 11.77c0 4.59-2.77 7.96-6.49 12.03l-11.68 12.72h18.43v7.53h-25.7c-2.42 0-4.07-1.65-4.07-4.07"/><path d="m1461.96 461.76c-10.21 0-15.06 9.52-15.06 22.42s4.93 22.42 15.06 22.42 15.06-9.52 15.06-22.42-4.93-22.42-15.06-22.42m0 37.47c-4.15 0-6.66-5.28-6.66-15.06s2.51-15.06 6.66-15.06 6.66 5.28 6.66 15.06-2.34 15.06-6.66 15.06"/><path d="m1413.06 501.74c0-1.21.78-2.42 1.9-3.63l15.23-16.53c2.34-2.6 4.15-4.67 4.15-7.53 0-3.12-2.42-4.93-6.14-4.93s-6.32 2.94-6.32 6.4h-8.14c0-6.66 5.28-13.76 14.45-13.76s14.37 5.28 14.37 11.77c0 4.59-2.77 7.96-6.49 12.03l-11.68 12.72h18.44v7.53h-25.7c-2.42 0-4.07-1.65-4.07-4.07"/><path d="m1527.73 476.99 8.66-14.45h-8.4l-12.64 21.2c-1.39 2.34-2.34 5.11-2.34 8.05 0 8.14 6.66 14.8 14.8 14.8s14.8-6.67 14.8-14.8-6.67-14.8-14.89-14.8m.09 22.24c-3.9 0-6.41-3.38-6.41-7.44s2.51-7.44 6.41-7.44 6.4 3.38 6.4 7.44-2.51 7.44-6.4 7.44"/><path d="m1650.74 174.8c-2.71-6.27-7.71-11.11-14.06-13.63-3.02-1.2-6.19-1.8-9.41-1.8-4.37 0-8.7 1.13-12.53 3.28l-.29.16-74.52 41.78 64.37-117.86c3.28-6 4.02-12.92 2.09-19.47-1.92-6.56-6.29-11.97-12.29-15.25-3.76-2.05-7.99-3.13-12.24-3.13-9.38 0-17.99 5.11-22.48 13.33l-103.5 189.52-59.55 33.39 87.55-154.52c6.96-12.28 2.63-27.92-9.65-34.88-3.84-2.18-8.19-3.32-12.58-3.32-2.11 0-4.22.26-6.27.78l-.35.08-107.4 27c-6.63 1.67-12.21 5.81-15.72 11.68-3.51 5.86-4.53 12.75-2.86 19.38 2.86 11.4 13.06 19.36 24.8 19.36 2.1 0 4.2-.26 6.26-.78l49.78-12.51-103.29 182.3c-3.37 5.95-4.22 12.85-2.4 19.44s6.1 12.07 12.05 15.44c3.84 2.18 8.2 3.33 12.59 3.33s8.94-1.19 12.84-3.44l130.38-73.11 71.14 69.15c4.8 4.67 11.14 7.24 17.83 7.24s13.49-2.75 18.35-7.76c2.45-2.52 4.33-5.47 5.57-8.74l66.08-166.82c2.52-6.36 2.41-13.31-.31-19.59m-99.5 131.45-32.01-31.12 57-31.96-24.98 63.08z"/><path d="m781 589.01c0-30.63-24.83-55.46-55.47-55.46s-55.47 24.84-55.47 55.46 24.84 55.47 55.47 55.47c1.62 0 3.21-.07 4.8-.2-.11-1.46-.17-2.93-.17-4.42 0-1.64.07-3.27.22-4.87-1.59.16-3.21.25-4.84.25-25.53 0-46.22-20.69-46.22-46.22s20.7-46.22 46.22-46.22 46.22 20.69 46.22 46.22c0 20.51-13.35 37.9-31.85 43.95-.33 2.25-.51 4.55-.51 6.9 0 .96.03 1.91.09 2.85 23.88-6.19 41.51-27.88 41.51-53.7"/><path d="m1021.36 589.01c0 30.64-24.84 55.47-55.47 55.47-29 0-52.79-22.24-55.26-50.59 3.3.34 6.49 1.03 9.55 2.03 3.32 22.25 22.52 39.31 45.71 39.31 25.53 0 46.22-20.69 46.22-46.22s-20.69-46.22-46.22-46.22-44.67 19.17-46.13 43.37c-2.96-.77-6.03-1.3-9.16-1.57 2.25-28.57 26.14-51.05 55.29-51.05 30.63 0 55.47 24.84 55.47 55.46"/><path d="m905.8 593.64c23.18 0 42.38 17.07 45.71 39.32 3.06 1 6.24 1.69 9.55 2.03-2.47-28.36-26.26-50.59-55.26-50.59-1.61 0-3.21.07-4.79.2.11 1.46.17 2.93.17 4.42 0 1.64-.07 3.27-.2 4.88 1.58-.17 3.2-.25 4.83-.25m46.14 49.07c-1.47 24.2-21.57 43.37-46.14 43.37s-46.22-20.7-46.22-46.22c0-20.51 13.35-37.9 31.84-43.94.34-2.25.51-4.56.51-6.91 0-.95-.03-1.91-.09-2.85-23.88 6.19-41.51 27.89-41.51 53.7 0 30.63 24.84 55.47 55.46 55.47s53.04-22.48 55.29-51.05c-3.14-.27-6.19-.8-9.15-1.57"/><path d="m780.79 593.89c.15-1.61.21-3.23.21-4.88 0-1.49-.05-2.96-.17-4.42 1.58-.14 3.18-.2 4.79-.2 28.99 0 52.79 22.24 55.25 50.59-3.3-.34-6.49-1.03-9.55-2.03-3.33-22.26-22.53-39.32-45.71-39.32-1.63 0-3.24.09-4.84.25m60.13 50.38c-2.25 28.57-26.15 51.05-55.29 51.05-30.63 0-55.46-24.83-55.46-55.47 0-25.81 17.63-47.51 41.51-53.69.06.94.09 1.9.09 2.85 0 2.35-.18 4.65-.51 6.9-18.49 6.05-31.85 23.44-31.85 43.94 0 25.53 20.7 46.22 46.22 46.22s44.66-19.17 46.13-43.37c2.96.77 6.02 1.3 9.16 1.56"/><path d="m845.71 533.55c-29.14 0-53.04 22.48-55.29 51.05 3.13.27 6.19.8 9.16 1.57 1.47-24.2 21.57-43.37 46.13-43.37s46.22 20.69 46.22 46.22c0 20.5-13.35 37.9-31.84 43.95-.34 2.25-.51 4.55-.51 6.9 0 .96.03 1.91.09 2.85 23.87-6.19 41.5-27.88 41.5-53.7 0-30.63-24.83-55.46-55.46-55.46m0 101.69c-23.18 0-42.38-17.07-45.71-39.32-3.05-1-6.25-1.69-9.55-2.03 2.47 28.35 26.26 50.59 55.26 50.59 1.62 0 3.22-.07 4.8-.21-.12-1.46-.18-2.93-.18-4.41 0-1.64.08-3.27.22-4.88-1.59.17-3.21.25-4.84.25"/><path d="m632.89 419.08v29.6h8.22v-39.55c0-2.42-2.08-4.5-4.5-4.5-1.21 0-2.6.69-3.38 1.65l-24.84 30.46v-27.52c0-2.51-2.08-4.59-4.59-4.59-1.21 0-2.34.52-3.2 1.39l-45.7 42.67h12.12l33.15-30.98v26.31c0 3.03 2.42 5.45 5.45 5.45 1.9 0 3.38-.87 4.5-2.25l22.76-28.13z"/><path d="m649.34 405.4h8.22v43.27h-8.22z"/><path d="m692.87 448.68v-7.53h-18.87v-35.75h-8.22v43.28z"/><path d="m721.69 406.79c-.61-1.3-1.73-2.16-3.29-2.16s-2.68.86-3.29 2.16l-19.3 41.89h8.74l4.59-10.13h18.35l4.59 10.13h9.09l-19.47-41.89zm-9.17 24.23 5.88-12.9 5.71 12.9h-11.6z"/><path d="m752.33 419.77v28.91h-8.22v-39.55c0-2.51 1.99-4.5 4.5-4.5 1.3 0 2.51.52 3.55 1.82l22.93 27.95v-28.99h8.05v39.55c0 2.51-1.99 4.5-4.5 4.5-1.3 0-2.51-.52-3.55-1.82z"/><path d="m812.14 404.62c-12.38 0-22.33 10.04-22.33 22.42s9.95 22.42 22.33 22.42 22.33-10.04 22.33-22.42-9.95-22.42-22.33-22.42m0 37.47c-7.88 0-13.93-6.92-13.93-15.06s6.06-15.06 13.93-15.06 13.93 6.92 13.93 15.06-6.06 15.06-13.93 15.06"/><path d="m859.3 427.04c0 8.14 5.97 15.06 14.54 15.06 5.11 0 8.57-2.68 10.13-6.32h9.09c-1.73 7.1-9.17 13.67-19.3 13.67-13.5 0-22.85-10.04-22.85-22.42s9.43-22.42 22.85-22.42c10.21 0 17.74 6.15 19.39 14.19h-9.26c-1.3-3.64-4.67-6.84-10.04-6.84-8.57 0-14.54 6.92-14.54 15.06"/><path d="m918.85 404.62c-12.38 0-22.33 10.04-22.33 22.42s9.95 22.42 22.33 22.42 22.33-10.04 22.33-22.42-9.95-22.42-22.33-22.42m0 37.47c-7.88 0-13.93-6.92-13.93-15.06s6.06-15.06 13.93-15.06 13.93 6.92 13.93 15.06-6.06 15.06-13.93 15.06"/><path d="m966.8 429.63c5.89-1.21 9.61-5.88 9.61-11.94 0-7.1-5.11-12.29-12.98-12.29h-16.53v43.27h8.22v-18.7h1.99l14.11 18.7h9.87l-14.28-19.04zm-11.68-6.84v-10.21h6.49c3.98 0 6.41 1.82 6.41 5.11s-2.42 5.11-6.41 5.11h-6.49z"/><path d="m992.76 448.68h8.22v-35.75h12.03v-7.53h-32.37v7.53h12.12z"/><path d="m1019.24 405.4h8.22v43.27h-8.22z"/><path d="m1044 419.77v28.91h-8.22v-39.55c0-2.51 1.99-4.5 4.5-4.5 1.3 0 2.51.52 3.55 1.82l22.94 27.95v-28.99h8.05v39.55c0 2.51-1.99 4.5-4.5 4.5-1.3 0-2.51-.52-3.55-1.82l-22.76-27.87z"/><path d="m1090.82 406.01c-.86-.87-1.99-1.38-3.2-1.38-2.51 0-4.59 2.08-4.59 4.59v39.47h8.22v-10.13h22.59l10.82 10.13h11.86l-45.7-42.67zm.43 25.01v-13.59l14.54 13.59z"/><path d="m848.73 501.74c0-1.21.78-2.42 1.9-3.63l15.23-16.53c2.34-2.6 4.15-4.67 4.15-7.53 0-3.12-2.42-4.93-6.14-4.93s-6.32 2.94-6.32 6.4h-8.14c0-6.66 5.28-13.76 14.45-13.76s14.37 5.28 14.37 11.77c0 4.59-2.77 7.96-6.49 12.03l-11.68 12.72h18.44v7.53h-25.7c-2.42 0-4.07-1.65-4.07-4.07"/><path d="m829.86 461.76c-10.21 0-15.06 9.52-15.06 22.42s4.93 22.42 15.06 22.42 15.06-9.52 15.06-22.42-4.93-22.42-15.06-22.42m0 37.47c-4.15 0-6.66-5.28-6.66-15.06s2.51-15.06 6.66-15.06 6.66 5.28 6.66 15.06-2.34 15.06-6.66 15.06"/><path d="m780.96 501.74c0-1.21.78-2.42 1.9-3.63l15.23-16.53c2.34-2.6 4.15-4.67 4.15-7.53 0-3.12-2.42-4.93-6.14-4.93s-6.32 2.94-6.32 6.4h-8.14c0-6.66 5.28-13.76 14.45-13.76s14.37 5.28 14.37 11.77c0 4.59-2.77 7.96-6.49 12.03l-11.68 12.72h18.43v7.53h-25.7c-2.42 0-4.07-1.65-4.07-4.07"/><path d="m895.64 476.99 8.66-14.45h-8.4l-12.64 21.2c-1.39 2.34-2.34 5.11-2.34 8.05 0 8.14 6.66 14.8 14.8 14.8s14.8-6.67 14.8-14.8-6.67-14.8-14.89-14.8m.09 22.24c-3.9 0-6.41-3.38-6.41-7.44s2.51-7.44 6.41-7.44 6.4 3.38 6.4 7.44-2.51 7.44-6.4 7.44"/><path d="m886.29 275.21 58.3-32.69-25.56 64.52zm40.75-213.02-103.5 189.52-59.55 33.39 87.55-154.52c6.95-12.28 2.63-27.92-9.65-34.88-3.84-2.17-8.19-3.32-12.58-3.32-2.11 0-4.22.26-6.27.78l-.35.08-107.4 27c-6.63 1.67-12.21 5.82-15.72 11.68-3.51 5.87-4.53 12.75-2.86 19.38 2.86 11.4 13.06 19.36 24.8 19.36 2.1 0 4.2-.26 6.26-.78l49.78-12.51-103.29 182.3c-3.37 5.95-4.22 12.85-2.4 19.44s6.1 12.07 12.05 15.44c3.85 2.18 8.2 3.33 12.59 3.33s8.94-1.19 12.84-3.44l130.38-73.11 71.14 69.15c4.8 4.67 11.14 7.24 17.83 7.24s13.49-2.75 18.35-7.75c2.45-2.52 4.33-5.46 5.57-8.74l66.08-166.82c2.52-6.35 2.41-13.31-.3-19.58s-7.71-11.11-14.06-13.63c-3.02-1.2-6.19-1.8-9.41-1.8-4.37 0-8.7 1.13-12.53 3.28l-.29.16-74.52 41.78 64.37-117.86c3.28-6 4.02-12.91 2.09-19.47s-6.29-11.97-12.29-15.25c-3.76-2.05-7.99-3.14-12.24-3.14-9.38 0-17.99 5.11-22.48 13.33"/><path d="m92.78 533.14v-3.06c-5.19 0-7.31.25-10.83.25-3.75 0-6.25-.25-10.83-.25l-24.37 59.23-24.62-59.23c-4.59 0-6.37.25-11.07.25s-6.95-.25-11.06-.25v3.06l4.95.12c4.33.1 4.93.35 4.93 3.07v72.52h3.77v-69l26.97 64.76h3.52l26.98-64.76v57c0 10.35 3.29 13.08 10.48 13.08h1.29v-73.6c0-2.96.97-2.96 4.95-3.07l4.95-.12z"/><path d="m119.91 609.78v-53.47c0-.95-.23-1.18-1.39-1.18-1.08 0-9.9.69-17.77.69v2.83l6.71.12c1.41 0 1.78.58 1.78 1.99v37.75c0 6.71 2.43 11.27 8.7 11.27z"/><path d="m290.18 609.88v-40.55c0-8.93-7.1-15.53-17.54-15.53-8.56 0-14.81 4.45-17.86 11.64v-9.03c0-.97-.25-1.18-1.44-1.18-1.04 0-9.86.69-17.73.69v2.83l6.71.12c1.39 0 1.74.56 1.74 1.99v47.96h10.72v-32.45c0-9.17 6.11-17.85 14.56-17.85 5.98 0 10.12 3.65 10.12 12.22v27.86c0 6.71 2.46 11.29 8.7 11.29h2.02z"/><path d="m156.48 598.51v-67.84c0-.95-.23-1.16-1.39-1.16-1.07 0-9.9.7-17.76.7v2.8l6.71.12c1.41 0 1.76.6 1.76 2.01v74.64h1.99c6.23 0 8.7-4.56 8.7-11.27"/><g fill-rule="evenodd"><path d="m208.7 590.62c0 7.77-4.84 16.34-12.24 16.34-6.69 0-10.46-3.17-10.46-11.51s6.34-14.1 18.35-14.7l2.57-.12c1.66-.12 1.78.12 1.78 1.78v8.22zm11.16 19.16c0-2.57-.7-8.1-.7-11.27v-31.04c0-8.82-8.33-13.77-18.68-13.77-13.64 0-22.11 7.66-22.11 11.06s1.99 4.47 4.7 4.47c7.75 0 4.82-12.47 15.99-12.47 6.11 0 9.65 3.17 9.65 9.3v9.88c0 1.62-.12 1.74-1.78 1.74l-3.26.14c-16.59.58-29.3 7.89-29.3 17.73s6.73 14.58 20.94 14.58c7.39 0 12.34-5.17 13.51-9.53.6 7.06 4.12 9.18 9.31 9.18h1.74z"/><path d="m348.87 581.22c0 16.11-2.57 25.74-14.83 25.74s-14.79-9.63-14.79-25.74c0-13.4 2.34-24.34 14.79-24.34s14.83 10.93 14.83 24.34m12.11 0c0-14.58-11.04-27.52-26.94-27.52s-26.9 12.94-26.9 27.52c0 16.46 10.79 28.91 26.9 28.91s26.94-12.45 26.94-28.91"/><path d="m337.6 493.23c0 6.83-2.27 11.57-6.85 11.57-5.37 0-6.86-4.9-6.86-11.57 0-6.16 1.27-10.95 6.86-10.95 5.11 0 6.85 5.44 6.85 10.95m4.91 13.21v-36.56c0-.46-.12-.56-.69-.56-.46 0-4.54.34-8.19.34v1.32l3.12.03c.63 0 .81.28.81.93v12.95c-.72-1.9-3.01-4.42-7.15-4.42-6.9 0-12.11 6.06-12.11 12.77 0 7.64 4.19 13.35 11.74 13.35 3.91 0 6.57-1.94 7.77-5.43 0 3.26 1.11 5.28 4.01 5.28z"/><path d="m357.73 506.43v-24.76c0-.44-.09-.56-.63-.56-.49 0-4.56.35-8.22.35v1.3l3.08.04c.65 0 .83.28.83.95v17.45c0 3.1 1.15 5.23 4.03 5.23z"/></g><path d="m42.33 499.76v-3.82c-3.82 5.12-10.12 9.01-17.56 9.01-11.02 0-14.77-7.16-14.77-25.71 0-15.72 3.66-24.35 15.35-24.35 8.59 0 14.26 4.96 14.9 12.45h2.08c0-1.66-.16-4.07-.16-5.9 0-2.08.16-3.98.16-5.9-1.85 0-8.79-3.05-16.97-3.05-12.87 0-24.3 9.68-24.3 26.75 0 19.18 10.3 28.42 23.71 28.42 6.94 0 13.42-2.8 17.56-7.9"/><path d="m79.75 488.03c0 10.93-1.76 17.48-10.07 17.48s-10.05-6.55-10.05-17.48c0-9.1 1.6-16.52 10.05-16.52s10.07 7.42 10.07 16.52m8.22 0c0-9.89-7.5-18.7-18.3-18.7s-18.29 8.81-18.29 18.7c0 11.18 7.36 19.63 18.29 19.63s18.3-8.45 18.3-19.63" fill-rule="evenodd"/><path d="m155.18 507.44v-27.56c0-6.05-4.49-10.55-11.39-10.55-5.69 0-9.97 3.54-11.83 7.91-.63-2.7-3.57-7.91-11.25-7.91-5.32 0-9.58 3.05-11.66 7.91v-6.14c0-.63-.16-.79-.95-.79-.74 0-6.71.45-12.06.45v1.92l4.56.09c.93 0 1.18.39 1.18 1.36v32.59h7.27v-22.04c0-6.23 4.4-12.15 9.42-12.15 4.01 0 6.39 2.49 6.39 8.3v18.93c0 4.56 1.69 7.68 5.92 7.68h1.36v-22.75c0-6.15 4.3-12.15 9.44-12.15 3.98 0 6.37 2.49 6.37 8.3v18.93c0 4.56 1.67 7.68 5.9 7.68h1.34z"/><path d="m202.4 507.44v-36.67h-7.27v21.58c0 6.23-4 12.13-9.67 12.13-3.98 0-6.64-2.46-6.64-8.29v-25.08c0-.63-.16-.79-.97-.79-.69 0-6.69.45-12.03.45v1.92l4.54.09c.97 0 1.2.39 1.2 1.36v23.02c0 6.04 4.63 10.51 11.66 10.51 5.76 0 9.84-3.01 11.9-7.9 0 4.56 1.67 7.68 5.9 7.68h1.37z"/><path d="m250.05 507.44v-27.56c0-6.05-4.77-10.55-11.87-10.55-5.87 0-10.08 3.05-12.15 7.91v-6.14c0-.63-.18-.79-.95-.79-.72 0-6.73.45-12.04.45v1.92l4.54.09c.95 0 1.18.39 1.18 1.36v32.59h7.27v-22.04c0-6.23 4.14-12.15 9.89-12.15 4.09 0 6.89 2.49 6.89 8.3v18.93c0 4.56 1.66 7.68 5.88 7.68z"/><path d="m287.91 485.25c0 1.18 0 1.34-1.18 1.34h-14.22q-1.2 0-1.2-1.18c0-7.83 2.62-13.9 8.64-13.9s7.96 6.13 7.96 13.74m8.1 1.58c0-8.61-6.59-17.51-16.06-17.51s-16.86 8.63-16.86 18.7c0 11.34 5.99 19.63 17.41 19.63 7.41 0 11.99-3.18 14.21-5.88v-3.43c-3.52 4.7-8.24 7.02-13.7 7.02-7.63 0-9.85-6.23-9.85-15.28 0-1.2.16-1.34 1.36-1.34h22.35c.72 0 1.15-.41 1.15-1.92" fill-rule="evenodd"/><path d="m254.2 201.8h-52.05v-70.96h-40.85v70.96h-52.94v40.87h52.94v75.97l20.41 7.24 20.44-7.24v-75.97h52.05z"/><path d="m77.21 111.54c5.69 8.71 3.58 22.04-1.97 30.2-2.41 3.36-4.95 6.87-8.29 9.33-5.62 5.51-12.03 11.02-14.98 18.38-.07.07-.3.19-.4.07l-.16-.23c1.66-6.73 3.65-13.33 6.51-19.6 2.75-7.62 8.35-13.33 12.04-20.21.55-1.44 1.37-2.96.88-4.62-.18-.26-.54-.26-.88-.26-2.83 1.83-4.74 5.16-6.85 7.62-3.27 4.82-6.76 9.7-9.31 15l.09.26-.28.09c-2.82 5.83-5.19 11.97-6.9 18.29-.21.26.12.95-.35.95-.58-5.28-3.08-9.76-3.77-14.98 2.54-11.71 8.28-23.05 18.35-29.86 4.58-3.45 9.24-8.06 11.58-13.13.39-.56 1.22-.56 1.9-.47 1.34.69 1.99 1.97 2.8 3.17"/><path d="m39.44 132.78c.6.95-.23 1.99-.16 3.03-3.49 9.63-1.76 21.34 1.44 30.55 1.78 6.87 2.11 15.05.55 22.17-.19.18-.55-.11-.6-.37-.63-1.16-1.46-2.18-1.94-3.5-4.45-7.15-7.73-14.86-8.75-23.47-.5-3.71.63-7.34-.07-10.92-.07-.34-.33-.7-.62-.9-1.21-.21-1.39 1.23-1.99 1.94-4.44 12.92 1.44 25.58 7.54 36.04 1.42 2.68 3.06 5.21 4.05 8.19 3.49 7.98 5.92 16.92 4.84 26.41 0 1.78-.69 3.38-1.09 5.02h-.14c-1.58-3.45-3.61-7.08-6.9-9.16l-1.51-.62c-.26-4.54-1.39-8.68-2.61-12.8-2.32-9.09-8.01-16.24-11-25.04-.28-.14-.28-.4-.28-.76-2.53-6.67-3.79-14.44-2.32-22.01 1.92-9.68 7.52-18.22 16.22-23.38 1.51-.49 3.98-2.41 5.35-.42"/><path d="m82.12 151.85c3.88 11.41.5 23.93-5.79 33.01-4.72 7.64-13.03 12.12-19.03 18.74-3.08 3.13-6.09 6.25-8.15 9.97-.42-.37-.05-1.32-.26-2.01-.07-3.05-.97-5.71-1.59-8.54.9-.83 1.3-1.85 1.99-2.73 6.09-8.19 15.48-13.17 20.74-21.81 2.48-3.8 4.72-7.57 5.41-12.11-.2-.69.12-1.6-.69-1.92-1.45.07-2.11 1.58-2.92 2.54-3.86 7.83-10.14 14.32-16.66 19.81-3.56 3.44-7.18 6.55-9.65 10.8h-.19c-.21-1.28.19-2.68.12-3.98 2.08-14.91 12.59-27.1 23.96-35.48 3.29-2.96 6.14-6.27 7.52-10.4.37-.41.63-.9 1.27-.81 2.38.25 3.05 3.03 3.93 4.95"/><path d="m16.92 183.75c.46.69.74 1.66.74 2.47.54 7.45 2.82 14.17 5.47 20.65.3.42.46.83.62 1.32 3.36 6.74 7.87 12.71 10.28 19.86.72 1.74 1.14 3.52 1.76 5.23.88 3.5 2.11 6.97 2.11 10.74h-.19c-5.14-6.06-12.2-10.48-15.95-17.27-3.34-5.23-5.62-11.22-6.65-17.54-.46-1.92-.39-3.98-1.09-5.76-.26-.56-.6-1.06-1.16-1.39-1.3.26-1.23 1.9-1.57 2.94-.74 5.58.62 11.02 1.99 16.11.62 1.02.74 2.27 1.37 3.36 2.94 7.59 8.82 13.63 14.79 19.12 3.96 3.73 7.59 7.98 10.67 12.68-1.9 3.65-3.36 7.48-4.59 11.41l-.12.16c-1.44-2.5-3.01-4.97-4.67-7.31-4.93-7.5-11.22-12.47-17.19-19.21-6.97-8.17-11.01-18.77-11.09-30.44.21-10.14 3.98-19.23 10.64-26.08.9-1.13 2.59-2.15 3.84-1.06"/><path d="m78.58 197.45c1.16 1.44-.07 3.22-.39 4.73-2.96 7.57-1.27 16.94-4.21 24.51-3.27 11.06-10.95 19.1-17.38 28.47-.49 1.23-1.56 2.32-2.18 3.7-3.08 6.08-5.62 12.47-5.83 19.85l-.14.05c-2.11-2.75-4.79-5.97-8.54-6.67-.28-.41.07-.83.12-1.29 2.73-9.17 7.11-17.41 12.92-24.85 7.08-8.87 14.32-18.36 15.83-30.28.09-1.23.28-2.75-.83-3.44-1.57.35-2.11 2.2-2.66 3.5-1.25 4-3.08 7.64-4.95 11.36-1.9 2.82-3.49 5.86-5.6 8.59-3.42 5.02-7.94 9.56-11.23 14.72-.07.09-.35.28-.35 0-1.15-18.84 8.49-34.81 21.59-46.22 3.06-2.6 6.36-4.81 9.98-6.69 1.18-.34 2.66-.87 3.84-.05"/><path d="m13.63 248.78c4.24 9.7 11.76 17.73 20.11 23.72 7.4 6.48 14.25 13.96 17.61 23.21-.28.26-.76-.14-1.11-.21-12.66-5.84-25.58-13.15-32.36-25.95-.9-1.23-1.37-2.68-3.03-2.96-.86.56-.6 1.86-.47 2.76 1.92 8.05 7.66 13.7 13.96 18.77 8.56 7.22 19.79 9.84 28.7 16.73 5.54 4.07 10.72 9.09 14.03 15.2 0 .3-.41.3-.56.21-1.43-.83-3.15-1.3-4.72-1.71-2.32-.42-4.79-.56-6.92.32l-.33-.07c-3.7-4.12-8.68-7.61-13.63-10.37-2.39-1.44-4.91-2.74-7.52-3.77-5.07-2.55-10.41-5.04-14.72-8.77-11.78-9.42-18.82-24.46-15.26-40.27.47-2.91 1.2-5.9 3.08-8.01.46-.47 1.02-.55 1.69-.4.69.33 1.06 1.02 1.46 1.59"/><path d="m77.35 248.78c4.53 11.9 1.78 26.55-3.56 37.2-2.87 6.89-5.9 14.03-4.88 22.15-.95-.47-1.57-1.43-2.47-2.18-1.97-1.6-4.01-3.45-6.22-4.97.42-.74.26-1.79.55-2.62.62-2.48 1.18-5.02 2.25-7.29.16-1.23.88-2.13 1.23-3.27 1.66-4 3.86-7.8 5.33-11.83 1.8-4.97 3.91-10.41 2.61-15.99-.14-.26-.33-.48-.6-.62-1.04-.19-1.32 1.04-1.78 1.66-1.36 4.89-2.89 9.65-5.07 14.19-3.15 6.46-6.97 12.64-8.15 20-.28 0-.28-.42-.4-.64-1.32-3.91-1.99-8.03-2.11-12.37-.21-9.35 3.89-17.06 9.01-23.86 3.15-4.52 6.37-9.63 7.4-15.42.26-.54.76-.95 1.37-1.16 3.15.68 4.39 4.33 5.48 7.03"/><path d="m31.9 307.85c6.01 6.41 14.58 10.05 22.45 13.56 2.87 1.04 5.55 2.5 8.22 3.87.83.21 1.43.74 2.11 1.09 3.82 2.27 7.45 4.95 11.01 8.12.63.85 1.65 1.58 2.13 2.54-2.59-.28-5.26-.74-7.94-.81-.6-.14-1.28 0-1.83-.28-10.02-1.3-19.05-5.58-26.22-12.16-1.04-.63-2.01-1.6-3.29-1.32-.83 1.25.4 2.41.81 3.52 6.76 8.85 17.52 13.21 28.47 14.91 6.16.69 12.13 1.78 17.82 3.57.46.28.26.83.46 1.25.97 3.43 2.53 6.73 4.12 9.91-.48.19-.95-.07-1.39-.42-7.66-2.82-15.87-4.49-24.23-5.79-3.4-.67-6.69-1.57-9.9-2.75-9.67-3.82-17.54-10.51-22.8-19.53-2.53-4.56-4.05-9.7-4.65-15.14-.14-2.06-.35-4.68 1.41-5.79 1.5-.6 2.41.93 3.24 1.65"/><path d="m86 284.96c.88 1.99.67 4.45 1.2 6.6 1.6 6.8 6.11 12.45 7.34 19.39 2.32 10.32 2.75 21.25 5.55 31.29 1.57 5.55 4.19 10.83 7.33 15.37-2.38-.58-4.86-1.51-7.55-1.25-.99.09-1.97.35-2.87.63-7.38-10.46-8.47-24.02-9.42-37.36-.65-5.51-1.66-10.88-2.96-16.1-.32-.92-.69-2.01-1.5-2.55-1.23-.16-1.11 1.16-1.57 1.87-.76 6.65 1.51 12.71 1.64 19.32.53 4.91.26 9.91 1.02 14.72-.28-.14-.49-.41-.63-.69-1-1-1.76-2.04-2.43-3.08-5.39-7.99-8.38-17.55-7.15-28.01.55-3.98 1.56-7.69 2.87-11.29.35-.26.35-.67.49-1.09 1.66-2.89 3.08-5.77 5.76-7.91.76-.56 2.39-.9 2.89.14"/><path d="m75.43 357.52c6.51 2.43 13.7 3.52 21.02 3.73 7.73 1.11 15.46 3.07 21.5 7.61l-.23.25c-11.39-.91-23.67 2.11-34.02-2.22-.95-.28-2.11-.9-3.06-.28-.14.21-.34.41-.28.7 1.18 1.85 3.15 2.54 4.91 3.56 6.99 2.91 15.3 2.98 23.16 2.54 11.92-.32 23.21 1.8 33.28 6.69v.16c-5 1.02-9.73 2.45-14.26 4.44-6.02-1.5-12.66-2.04-19.16-1.9-1.07-.09-2.25.19-3.42 0-2.66.07-5.21-.49-7.82-.62-2.59-.47-5.26-1.11-7.71-2.02-10-3.36-18.75-10.92-22.94-20.76-.47-1.3-.9-2.89-.41-4.33.21-.47.67-.69 1.09-.9 3.08.49 5.47 2.29 8.35 3.36"/><path d="m107.95 325.28c10.07 2.2 17.59 10.58 21.76 19.46 6.02 11.62 13.29 24.07 24.56 31.09.77.26 1.16.62 1.8 1.02-.21.42-.95.56-1.55.56-11.39 1.46-19.9-7.1-24.6-15.64-2.94-5.42-5.26-11.2-8.5-16.41-1.97-2.77-3.89-6.36-7.1-8.05-.47 0-.69.25-.9.62-.14 1.66.95 2.94 1.52 4.3 5.53 7.87 7.39 17.84 13.49 25.34 0 .14 0 .3-.14.34-8.5-2.75-15.19-9.07-18.35-17.59-3.01-7.45-3.43-15.97-7.66-22.78-.14-.69-.42-1.57.26-2.13 1.44-1.09 3.49-.55 5.21-.28l.19.16z"/><path d="m288.58 325.1c.07-1.39.07-2.96 0-4.35.69.05 1.46-.12 1.9-.76 3.56-4.58 1.18-11.53 4.06-16.38.55-1.37 1.91-2.41 3.47-2.43 2.13.56 3.65 2.77 4.59 4.62.34.99.9 2.16 1.92 2.36.14-.14.42-.14.58 0 3.33-1.81 3.93-5.74 5.1-8.98.69-2.62 1.51-5.2 2.8-7.59.95-1.53 2.06-2.85 3.77-3.35.26-.33.77.07 1.02-.05 1.78.62 2.47 2.55 2.54 4.28.12.55.61 1.09 1.11 1.37 2.06.33 3.13-1.59 4.35-2.79 2.55-4.49 5.9-9.1 11.25-10.3 1.57-.05 3.29.35 3.98 1.72 2.26 4.21-.34 8.7-1.58 12.64-.21.95-.41 2.41.34 3.22 1.25.42 2.68.09 3.98.51.88.32 1.71 1.29 1.71 2.32-.49 4.56-4.77 7.33-8.08 9.53-2.61 1.74-5.69 2.85-7.45 5.74-.07.44 0 .84 0 1.25.47.71 1.29.57 1.9.83 1.44.14 2.8.95 3.22 2.34.35 2.77-2.41 4.09-3.96 5.46-3.71 2.01-7.87 3.06-11.92 4.31-1.9.88-3.89 1.64-5.26 3.43-.12.42-.42 1.06 0 1.46 1.16 1.29 3.36.49 4.77 1.29 1.44.37 3.17 1.32 3.31 3.06-.35 3.15-3.69 4.53-6.28 5.58-.42.14-.85.21-1.25.42-1.04.35-2.13.54-3.23.69-1.99.44-4.24.49-6.28.28 1.42-3.85 1.23-9.17-1.71-12.08l-1.87-1.43c4.37-3.73 8.49-7.76 12.54-11.67 0-.35.55-.56.76-.83 2.25-2.57 4.58-5.14 6.78-7.62 1.02-1.04 1.73-2.2 2.54-3.17 1.43-1.74 2.59-3.68 3.96-5.6 0-.28.3-.56.41-.7 1.42-2.13 2.74-4.42 3.29-6.96-.09-.28.05-.71-.21-.99-.21-.26-.54-.41-.88-.26-1.59.69-2.75 2.29-3.79 3.59-9.49 12.36-21.15 22.61-32.79 32.7-.67.14-1.41.3-2.13.49-1.41 0-2.45.83-3.75 1.06-.88-2.17-.34-4.91.26-7.04l.21-1.25z"/><path d="m308.78 201.01c2.39-.91 6.78 2.87 7.06-1.69-.81-5.51-5.55-9.14-7.2-14.14-.88-1.78-1.43-4.07-.95-6.06.12-.69.69-1.23 1.23-1.62.86-.67 3.26-.16 3.75.07 1.18.55 2.27.64 2.69.35.53-.35.74-.95.69-1.64-.69-2.83-2.74-4.7-4.05-7.24-1.23-2.83-3.15-6.21-1.46-9.4.3-.47.62-.7 1.18-.84 1.09-.28 1.99-.21 2.96.18 1.16.53 2.78 1.48 4.17-.77 2.27-3.7-.19-8.64.55-13 .4-2.41 1.35-5.3 3.84-6.21.95-.35 2.04.07 2.8.47 4.44 2.69 4.93 8.28 8.2 11.99.47.56 1.25 1.04 1.99 1.11 1.59-.83 2.48-2.78 4.47-2.9 1.08-.14 2.11.76 2.64 1.71 2.89 6.85-1.23 13.61-.74 20.65.21.9.41 1.85 1.31 2.34.97.42 1.64-.28 2.32-.78.95-1.3 2.47-2.34 4.31-2.29.97.28 1.43.97 1.76 1.89.97 6.39-3.54 11.09-5.65 16.53-.23 1.13-.71 2.57.07 3.54.53.56 1.43.69 2.18.35 1.3-.63 3.01-1.39 4.44-.35 1.65 1.51.83 4.24.14 6.06-.62 1.44-1.36 2.83-2.27 4.07-2.78-1.69-7.19-1.43-9.72.58-4.7 3.54-6.78 8.91-7.26 14.52-1.23-.7-2.59-1.2-3.94-1.46.74-4.49 1.14-9.24 1.9-13.88-.12-.19-.12-.4 0-.62.28-4 .62-8.51.69-12.61 0-8.8-.54-18.01-2.27-26.53-.95-2.2-.95-5.09-3.27-6.39-.85.14-.9.97-1.11 1.58-.19 2.76.85 8.84.85 8.84 1.18 10.69.67 22.2-.58 32.7-.45 2.48-.61 5.25-1.14 7.8-1.44 9.6-3.35 18.91-5.34 28.31-.07.07-.21.14-.33.14-1.16-.76-2.75-.97-4.19-1.16-.12-.83-.07-1.81-.19-2.71-.76-6.81-2.27-13.36-5.74-18.94-1.53-2.98-2.9-6.09-2.69-9.74.21-1.11.76-2.5 1.92-2.82"/><path d="m324.54 248.18c-.28-.23.12-.42.05-.71.21-2.06-.26-3.87-.6-5.74.88.37 1.97 1.25 3.08.63.46-.34.67-.92.74-1.46.54-1.37 0-2.96-.2-4.35-.97-3.22-2.15-6.5-1.99-10 .07-1.72.71-3.78 2.52-4.35 2.75-.42 3.96 1.78 5.83 3.31.62.14 1.29.4 1.92-.07 2.34-1.95 2.73-4.84 3.34-7.66.97-3.82 2.46-7.91 5.97-10.11 1.3-.42 2.8-.68 3.96.27 3.08 2.34 3.29 6.55 3.49 10.35-.12.5-.12 1.25-.12 1.8-.07 1.16.2 2.41 1.14 3.17 1.45.49 2.06-1.11 3.24-1.11.53-.48 1.37-.35 2.11-.35 1.57.28 1.99 1.94 2.27 3.33 0 6.69-4.44 11.59-7.68 16.85-.35.88-.9 2.2-.23 3.08 1.25 1.04 2.83 0 4.05.14.58-.07 1.13.21 1.59.42 1.04.67 1.21 1.92 1.09 3.17-.41 1.99-1.55 3.8-2.94 5.25-.76 1.25-1.97 2.06-2.8 3.1-.42.28-.76.7-1.18.91-2.04 2.48-5.39 3.93-6.02 7.31 0 .49.35.97.74 1.11 1.73.28 3.38-.55 5.28-.28 1.11.26 2.2.56 2.91 1.57 1.14 3.12-1.8 5.55-3.85 7.34-2.19 1.65-4.65 2.76-7.04 3.87-.23.05-.42-.14-.42-.28-1.97-2.53-5.07-3.48-8.29-3.22-2.33.49-4.65 1.25-6.43 2.83-.46-1.59-1.57-3.1-2.99-4 2.59-3.65 5.32-7.59 7.57-11.25 1.32-1.72 2.29-3.87 3.52-5.6 1.42-3.33 3.33-6.29 4.56-9.75.56-1.76 1.44-3.59 1.92-5.51 1.18-4.75 2.54-9.95 1.66-15.18-.14-.57-.28-1.25-.92-1.6-1.07.07-1.36 1.37-1.76 2.15-.81 2.84-1.23 5.79-2.26 8.56-2.66 8.22-6.3 16.02-10.9 23.35-.69-2.27-2.66-4.08-5-4.47-.81-.14-1.78-.14-2.57 0-.3-.76.46-1.3.53-2.08.56-1.52.97-3.1 1.11-4.74"/><path d="m281.08 126.7c1.09-.69 2.85-.42 4.01-.28.37.05.97.05 1.35-.14 2.24-.6 2.56-3.49 1.99-4.97-1.21-3.12-5.58-6.43-4.98-10.35.35-1.25 1.18-2.29 2.41-2.78 4.97-1.95 10.57 4.75 14.47 7.29 1.64.97 3.15 2.41 5.27 1.99 1.46-1.04 1.51-3.17 3.29-3.73 1.78-.12 3.27.88 4.1 2.36 2.61 4.61 3.22 9.98 3.77 15.44.21 2.06.26 4.16.34 6.22-1 1.78-1.9 3.88-2.24 6.07-.54 3.19 0 6.43.34 9.39-.88-.07-1.85-.41-3.03-.28-2.1-9.93-5.98-19.53-11.66-27.79-1.18-1.39-2.48-3.38-4.38-3.54-.47.28-.47.85-.42 1.25.14.71.21 1.4.63 1.89.05.62.47 1.02.6 1.65 4.81 8.68 8.26 18.61 10.37 28.56.09.97-.93 1.37-1.21 2.27-.42 1.32-.56 2.69-.76 3.98l-.19.16c-3.22-4.75-11.71-5.54-14.91-10.39-.81-.9-1.23-2.48-.74-3.78.97-1.74 3.21-1.06 4.86-1.52.47-.32.81-.77.81-1.34-.81-2.6-3.48-4.21-5.67-5.56-3.84-2.08-8.08-4.9-9.38-9.31-.28-1.04 0-2.2.97-2.75"/><path d="m282.24 155.39c1.04-.69 2.25-.35 3.5-.28.46.16.93.34 1.36.47 4.17 1.92 11.87 8.63 16.54 9.51.83.21 1.51-.3 2.04-.71.55 2.29 1.39 4.35 2.68 6.29.27.21.41.55.55.83-2.06.47-4.05 2.02-4.93 4l-.41.78c-2.06-3.1-5.88-6.25-8.22-7.27-.35-.16-1.06.37-1.06.72-.07 2.62 2.26 4.58 3.59 6.55 4.14 6 7.47 13.24 8.96 19.72-1.09.63-2.32 1.37-3.08 2.56-2.35 3.82-1.5 9.12.28 12.92 1.06 2.34 2.66 4.54 3.56 6.95 1.69 3.86 2.66 8.01 3.36 12.22-.09 1.8-.21 3.65 0 5.37-.28.14-.09.47-.35.54-.35-.24-.19-.69-.47-.95-2.47-8.27-15.14-16.55-20.5-22.89-2.61-3.73-5.48-7.8-4.44-12.62.39-1.18 1.43-1.94 2.66-1.94 1.3-.14 2.8.46 4.17.41.69-.12 1.3-.41 1.57-1.06.56-2.11-.95-3.84-1.97-5.41-1.64-2.22-3.77-3.75-5.69-5.88-.19-.14-.19-.47-.41-.55-1.99-2.27-4.24-4.19-3.36-7.57.77-1.45 2.39-1.34 3.77-1.53.47-.34.95-.69 1.09-1.32.07-4.07-2.94-6.81-4.58-9.98-1.16-2.2-2.2-4.7-1.85-7.52.43-.83.69-1.8 1.64-2.36"/><path d="m279.92 281.33c.21-1.58.28-3.26.67-4.7.51-1.64 1.11-3.52 3.03-4.01 2.46-.26 4.51 4.49 6.51 1.25.93-2.29.12-4.93-.42-7.11-.67-2.48-2.06-4.7-2.61-7.33-1.16-2.2-1.51-4.81-1.8-7.38.18-1.3.28-2.82 1.46-3.66 1.14-1.23 2.66.35 3.98-.47.6.07.88-.48 1.22-.85.83-4.4-2.13-7.8-1.5-12.27.07-2.48.97-4.97 3.01-6.27 2.32-1.5 5.92-.12 7.36 1.73 1.8 2.34 3.35 4.97 4.54 7.64 1.73 3.84 2.68 7.33 7.15 4.21 1.38-.99 2.46-2.5 4.45-2.45 1.15.21 1.97 1.18 2.32 2.36.54 2.68.34 5.63-.54 8.21-.48 1.8-1.15 3.52-1.2 5.46-.25 1.52 0 2.48.32 3.79.34.42.44.97 1.02 1.02 1.09.07 1.9-.97 3.01-1.11 1.09-.55 2.52-.6 3.7-.07.88.63 1.11 1.74 1.11 2.77-.56 5.18-5.44 8.13-7.48 12.64-.19.69-.33 1.37-.07 2.06.21.42.55.56.97.63.07-.23.26-.14.41 0 .54-.23 1.21-.14 1.78-.49 1.42 0 3.15.14 3.87 1.53.99 2.73-1.2 4.94-2.8 6.83h-.26c-1.66-2.08-4.09-2.84-6.69-2.62-6.99 1.74-9.17 9.09-11.05 16.48-.5-.79-1.48-1.95-2.7-2.66 5.37-17.2 5-29.93 2.08-43.97-.67-2.75-.94-5.72-3.14-7.73-.41.02-.83.21-1.02.58-.62 1.3-.21 2.87-.3 4.4 2.38 20.23 1.02 32.61-2.76 45.52-1.11 0-2.94.37-4.05 1.28-3.93 3.22-5.48 8.29-5.12 13.61-.09 1.64-.3 2.69-1.06 4.08-3.17-8.72-7.48-9.61-10.57-7.99 4.85-7.59 3.58-15.57 3.18-24.93"/><path d="m241.84 333.4c1.48-1.67 3.59-3.89 5.81-2.69 2.17 1.16.77 4.38 2.91 5.63 2.27 1.32 3.54-2.89 4.33-5.14 1.46-4.1 1.9-8.36 3.52-11.34 1.05-1.9 2.04-4.03 4.65-3.27 1.87.56 1.6 5.1 4.4 4.77 3.75-.48 5.48-11.13 10.98-9.93 2.73.58 5.26 5.33 5.35 11.53.05 4.03-1.6 8.06-.42 11.85.21.26.47.54.47.95-1.5 1.41-3.22 2.64-4.86 3.89-.48-1.09-1.17-2.48-2.26-3.31-.71-.62-1.66-1.09-2.4-1.57 1.37-3.05 2.48-7.01 2.15-9.72-.21-.35-.95-.49-1.29-.3-2.04 1.55-3.29 6.16-5.46 9.74-6.43 1.46-9.98 6.85-12.73 12.29-.28-.05-.21-.46-.41-.69-1.65-1.85-4.1-3.08-6.85-2.48-6.85 1.41-10.33 8.58-14.29 14.53-1.04-2.85-3.08-3.28-5.69-4.16 6.04-7.29 7.3-15.19 12.08-20.58"/><path d="m218 369.65c3.2-4.01 5.35-8.57 9.54-11 .76-.46 2.33-.56 3.17-.09 1.36.74 1.5 4.26 3.66 4.12 2.92-.17 7.01-5.51 9.02-8.4 1.78-2.64 4.03-5.25 7.26-5.95 1.07-.14 2.11.12 2.68 1.02 1.07 1.8-.21 4.68 1.48 6.14 1.8.14 2.89-1.23 3.91-2.41 1.38-1.39 2.13-3.47 3.29-4.84.07-.63.55-1.18.88-1.72 2.22-3.05 4.67-6.3 8.44-7.13 1.23-.21 2.39.28 2.92 1.37.49.81.63 1.94.63 2.9-.28.21.12.42 0 .69.07.61.32 1.25.88 1.37 1.37.41 2.75-.12 3.92-.7 5-1.85 7.73-6.69 13.01-8.03 2.06-.69 5-.69 6.78.63 1.9 1.43 1.71 4.4 1.16 6.48-.35.12-.07.47-.21.67-1.31 3.38-3.63 6.37-5.14 9.61.14.47-.19.74-.27 1.25 0 1.02 0 2.08.74 2.74.5.34 1.23.55 1.71.76 1.18.49 2.2 1.18 2.77 2.34.34 1.94-1.18 3.4-2.68 4.37-5.62 3.52-13.15 2.22-19.1 4.98-1.65.51-3.92 1.37-4.25 3.26-.14.83.4 1.23.88 1.65 1.09.5 2.61 1.44 2.75 2.82.07 2.41-2.33 3.45-4.19 4.22-.44.14-1.02.28-1.57.47-9.03 2.03-18.88-.93-28 .69-2.25.33-4.65.69-6.71 1.58-.74.09-1.23-.47-1.92-.6-3.56-1.32-7.04-2.77-10.86-3.5 2.45-.56 4.98-1.11 7.37-1.62.34-.19.91-.12 1.23-.24 1.8-.79 3.63-.65 5.28-1.46.76.05 1.29-.58 1.97-.51 2.74-.97 5.54-1.8 8.43-2.69 2.24-.97 4.65-1.88 7.04-2.71.27-.33.76-.33.93-.4.58-.21.99-.63 1.59-.63.83-.48 1.87-.83 2.75-1.25 3.57-1.73 7.32-3.31 10.63-5.39 1-.42 2.24-1.18 3.26-1.81 4.52-3.05 9.45-5.88 12.6-10.57.21-.42.47-1.11.07-1.51-.95-.56-2.02.1-3.01.42-4.84 3.31-9.4 5.98-14.43 8.63-2.69 1.25-5.19 2.5-7.89 3.75-.67.26-1.43.51-2.11.76-2.68 1.25-5.5 2.21-8.21 3.26-1.94.63-4.07 1.18-5.97 1.83-1.32.39-2.54.79-3.84 1.16-8.21 2.36-19.75 5.16-26.48 6.46-2.29.46-4.65.97-6.99 1.25-.14-.07 0-.21.05-.34 4.79-2.48 7.23-5.78 9.14-8.15"/><path d="m166.34 379.04c5.65-1.99 10.74-4.84 15.39-8.65 5 4.54 11.43 7.09 17.61 9.51v.1c-5.41 5.27-11.31 9.56-17.68 12.94-.48 0-.62-.33-1.02-.47-5-2.87-10.34-6.25-14.58-10.46-.76-.49-1.44-1.32-2.13-2.01.76-.41 1.66-.54 2.41-.97" fill-rule="evenodd"/><path d="m129.84 390.26c.51-.41 1.23-.27 1.8-.69 5.83-1.95 11.69-3.19 17.75-4.53 2.92-.76 5.93-1.53 8.8-2.45 1.85 2.17 3.77 3.59 5.76 5.32-2.2 1.04-4.66 1.6-6.99 2.29-7.69 2.5-15.95 3.49-23.54 6.13-5.27 1.87-10.43 4.15-14.17 8.36-1.85 1.74-3.17 4.02-4.19 6.38-1.62-2.29-2.73-4.75-4.44-6.9 4.16-7.04 12.11-10.98 19.23-13.91"/><path d="m193.24 392.02c.05-.28.34-.42.55-.28 1.51.81 3.29 1.22 4.86 1.85 4.72 1.8 9.77 2.89 14.79 4.05 1.28.05 2.48.6 3.82.67 3.31.77 6.86 1.44 9.95 2.46.62.42 1.42.3 1.99.83 6.36 2.2 12.31 6.74 14.91 13.03l.19.74c-1.76 2.62-3.21 5-4.91 7.68-.47-.41-.28-1.25-.56-1.85-2.18-9.72-12.66-13.38-21.22-15.49-10.81-2.08-21.36-4.86-31.17-9.31 2.41-1.18 4.62-2.92 6.8-4.37"/><path d="m204.27 382.46c7.96 2.76 16.71 3.59 24.65 6.16 6.97 2.15 13.42 5.5 18.81 10.19 1.39 1.66 3.03 3.17 3.79 5.16-.83.76-1.11 1.74-1.78 2.55-.92 1.32-1.73 2.89-2.68 4.21-.21-.12-.14-.47-.28-.6-1.5-3.52-4.23-6.34-7.11-8.84-.26-.05-.54-.4-.9-.58-8.89-6.02-20.25-6.97-30.74-9.63-3.28-.95-6.57-1.78-9.72-3.12 1.92-1.78 4.03-3.59 5.97-5.51"/><path d="m123.75 407.51c5.69-5.11 13.43-7.27 20.97-8.79.4-.28.88-.14 1.36-.35.76-.07 1.57-.35 2.41-.49 2.24-.62 4.72-.99 6.96-1.67 4.44-1.23 8.84-2.62 13.08-4.42 2.18 1.57 4.4 3.29 6.78 4.68-10.48 4.63-21.62 7.75-33.21 9.84-5.34 1.58-10.67 3.68-14.84 7.62-2.39 2.63-3.89 5.72-4.52 9.18h-.14c-1.5-2.47-3.08-5.07-4.58-7.38.9-3.1 3.36-5.92 5.74-8.22"/><path d="m160.3 347.17c-.71-.74-6.53-2.66-10.42-2.66 5.56 7.34 14.61 19.28 22.02 26.19 2.22-1.04 3.84-2.11 5.71-3.7-6.16-6.22-11.92-12.82-17.31-19.83"/><path d="m142.22 342.52c-.77-1.13-5.63-2.3-9.68-2.3 7.18 11.2 18.42 26.38 27.48 35.67 2.38-.81 4.53-1.64 6.71-2.7-11.36-12.18-16.81-19.58-24.51-30.67"/><path d="m203.12 347.17c.72-.74 6.53-2.66 10.44-2.66-5.58 7.34-14.63 19.28-22.06 26.19-2.17-1.04-3.82-2.11-5.67-3.7 6.18-6.22 11.94-12.82 17.29-19.83"/><path d="m221.22 342.52c.78-1.13 5.62-2.3 9.7-2.3-7.2 11.2-18.4 26.38-27.5 35.67-2.4-.81-4.54-1.64-6.69-2.7 11.34-12.18 16.82-19.58 24.49-30.67"/><path d="m181.71 323.79c11.62-7.17 26.08-8.07 39.72-10.11 18.19-2.75 31.89-15.12 31.89-34.18v-146.88h-143.22v146.88c0 19.05 13.72 31.43 31.91 34.18 13.65 2.04 28.1 2.94 39.71 10.11m0 8.24c-1.08-1.34-2.82-2.61-5.39-4.1-9.91-5.34-26.2-6.6-35.18-7.96-22.24-3.34-37.38-18.91-37.38-40.67v-153.02h155.92v153.01c0 21.76-15.14 37.33-37.38 40.67-9 1.36-25.29 2.62-35.18 7.96-2.55 1.49-4.29 2.76-5.4 4.1" fill-rule="evenodd"/><path d="m121.62 61.84h6.32v12.96h-6.32z"/><path d="m172.8 48.56h6.34v6.64h5.18v-6.64h6.32v12.98h-17.84z"/><path d="m133.13 70.06v-14.86h6.32v12.96l6.34 9.75v20.18h-6.34v-18.26z"/><path d="m150.95 61.84h5.19v6.32h-11.51v-12.96h6.32z"/><path d="m161.89 109.6h-45.47v-23.17l-6.32-9.75v-14.84h6.32v12.95l6.38 9.78v18.68h39.09z"/><path d="m235.49 61.84h6.34v12.96h-6.34z"/><path d="m230.33 70.06v-14.86h-6.34v12.96l-6.34 9.75v20.18h6.34v-18.26z"/><path d="m212.51 61.84h-5.2v6.32h11.52v-12.96h-6.32z"/><path d="m116.42 121.1v-6.34h50.61v-11.52c0-8.1 6.58-14.67 14.69-14.67s14.68 6.57 14.68 14.67v11.52h50.6v6.34h-56.94v-17.86c0-4.59-3.73-8.31-8.35-8.31s-8.35 3.72-8.35 8.31v17.86z"/><path d="m201.56 109.6h45.44v-23.17l6.32-9.75v-14.84h-6.32v12.95l-6.34 9.78v18.68h-39.1z"/><path d="m173.37 85.22v-14.83l-5.74-8.86v-12.98h-6.32v14.86l5.72 8.84v17.63c1.8-1.94 3.94-3.52 6.34-4.67"/><path d="m190.06 85.22v-14.83l5.72-8.86v-12.98h6.37v14.86l-5.76 8.84v17.63c-1.76-1.94-3.91-3.52-6.34-4.67"/></g></svg>